<?xml version="1.0" encoding="utf-8"?>
<!-- Generator: Adobe Illustrator 16.0.0, SVG Export Plug-In . SVG Version: 6.00 Build 0)  -->
<!DOCTYPE svg PUBLIC "-//W3C//DTD SVG 1.1//EN" "http://www.w3.org/Graphics/SVG/1.1/DTD/svg11.dtd">
<svg version="1.1" id="Layer_1" xmlns="http://www.w3.org/2000/svg" xmlns:xlink="http://www.w3.org/1999/xlink" x="0px" y="0px"
	 width="500px" height="500px" viewBox="0 0 500 500" enable-background="new 0 0 500 500" xml:space="preserve">
<g>
	<path fill="#F1553A" d="M394.895,498.931H106.153C47.769,498.931,0,451.158,0,392.777V106.156C0,47.771,47.769,0,106.153,0h287.68
		c58.38,0,106.149,47.771,106.149,106.156v287.68C501.051,451.158,453.282,498.931,394.895,498.931z"/>
	<path fill="#FFFFFF" d="M393.836,307.854L393.836,307.854c0-2.124,1.059-4.248,1.059-5.307
		c21.229-82.801-29.726-180.462-115.708-231.417c37.157,50.955,54.142,112.522,39.278,166.659
		c-1.062,5.306-3.183,9.554-4.245,13.802c-2.124-1.065-4.245-2.127-7.432-4.249c0,0-84.92-53.08-177.275-145.431
		c-2.124-2.125,48.828,74.307,108.274,135.877c-27.599-15.922-105.091-71.123-152.856-115.707
		c6.37,9.554,12.739,19.11,21.229,28.661c40.341,52.016,93.417,115.712,157.108,164.543c-44.583,27.596-108.277,29.72-170.909,0
		c-15.918-7.432-29.72-15.929-43.521-26.543c26.537,42.465,67.936,79.616,117.83,100.846c59.446,25.484,118.895,23.36,162.416,0l0,0
		c18.046-11.674,66.878-29.72,91.293,18.046C424.621,417.189,436.295,360.927,393.836,307.854z"/>
</g>
</svg>
